HIERARCHY
ROOT Hips
{
	OFFSET 0 0 0
	CHANNELS 6 Xposition Yposition Zposition Yrotation Xrotation Zrotation
	JOINT Spine
	{
		OFFSET -0 7.6537 -2.43962
		CHANNELS 3 Yrotation Xrotation Zrotation
		JOINT Spine1
		{
			OFFSET -0 6.97908 0
			CHANNELS 3 Yrotation Xrotation Zrotation
			JOINT Spine2
			{
				OFFSET -0 6.97908 0
				CHANNELS 3 Yrotation Xrotation Zrotation
				JOINT Spine3
				{
					OFFSET -0 6.97908 0
					CHANNELS 3 Yrotation Xrotation Zrotation
					JOINT Neck
					{
						OFFSET -0 12.4536 3.43962
						CHANNELS 3 Yrotation Xrotation Zrotation
						JOINT Head
						{
							OFFSET -0 9.56712 0
							CHANNELS 3 Yrotation Xrotation Zrotation
							End Site
							{
								OFFSET 0 15 0
							}
						}
					}
					JOINT LeftShoulder
					{
						OFFSET 1.59452 1.70466 3.18904
						CHANNELS 3 Yrotation Xrotation Zrotation
						JOINT LeftArm
						{
							OFFSET 16.7394 0 0
							CHANNELS 3 Yrotation Xrotation Zrotation
							JOINT LeftForeArm
							{
								OFFSET 22.0792 0 0
								CHANNELS 3 Yrotation Xrotation Zrotation
								JOINT LeftHand
								{
									OFFSET 21.9518 0 0
									CHANNELS 3 Yrotation Xrotation Zrotation
									JOINT LeftHandThumb1
									{
										OFFSET 4.21471 0 2.29637
										CHANNELS 3 Yrotation Xrotation Zrotation
										JOINT LeftHandThumb2
										{
											OFFSET 3 0 1
											CHANNELS 3 Yrotation Xrotation Zrotation
											JOINT LeftHandThumb3
											{
												OFFSET 2.1 0 0
												CHANNELS 3 Yrotation Xrotation Zrotation
												JOINT LeftHandThumb4
												{
													OFFSET 1.305 0 0
													CHANNELS 3 Yrotation Xrotation Zrotation
													End Site
													{
														OFFSET -0 0 0
													}
												}
											}
										}
									}
									JOINT LeftHandIndex1
									{
										OFFSET 7.90742 0 3.16134
										CHANNELS 3 Yrotation Xrotation Zrotation
										JOINT LeftHandIndex2
										{
											OFFSET 3.5 0 0
											CHANNELS 3 Yrotation Xrotation Zrotation
											JOINT LeftHandIndex3
											{
												OFFSET 2.45 0 0
												CHANNELS 3 Yrotation Xrotation Zrotation
												JOINT LeftHandIndex4
												{
													OFFSET 1.5225 0 0
													CHANNELS 3 Yrotation Xrotation Zrotation
													End Site
													{
														OFFSET -0 0 0
													}
												}
											}
										}
									}
									JOINT LeftHandMiddle1
									{
										OFFSET 7.88523 0 0.8816
										CHANNELS 3 Yrotation Xrotation Zrotation
										JOINT LeftHandMiddle2
										{
											OFFSET 4.6 0 0
											CHANNELS 3 Yrotation Xrotation Zrotation
											JOINT LeftHandMiddle3
											{
												OFFSET 3.22 0 0
												CHANNELS 3 Yrotation Xrotation Zrotation
												JOINT LeftHandMiddle4
												{
													OFFSET 2.001 0 0
													CHANNELS 3 Yrotation Xrotation Zrotation
													End Site
													{
														OFFSET -0 0 0
													}
												}
											}
										}
									}
									JOINT LeftHandRing1
									{
										OFFSET 7.56303 0 -1.39814
										CHANNELS 3 Yrotation Xrotation Zrotation
										JOINT LeftHandRing2
										{
											OFFSET 3.75 0 0
											CHANNELS 3 Yrotation Xrotation Zrotation
											JOINT LeftHandRing3
											{
												OFFSET 2.625 0 0
												CHANNELS 3 Yrotation Xrotation Zrotation
												JOINT LeftHandRing4
												{
													OFFSET 1.63125 0 0
													CHANNELS 3 Yrotation Xrotation Zrotation
													End Site
													{
														OFFSET -0 0 0
													}
												}
											}
										}
									}
									JOINT LeftHandPinky1
									{
										OFFSET 6.94084 0 -3.67789
										CHANNELS 3 Yrotation Xrotation Zrotation
										JOINT LeftHandPinky2
										{
											OFFSET 2.875 0 0
											CHANNELS 3 Yrotation Xrotation Zrotation
											JOINT LeftHandPinky3
											{
												OFFSET 2.0125 0 0
												CHANNELS 3 Yrotation Xrotation Zrotation
												JOINT LeftHandPinky4
												{
													OFFSET 1.25062 0 0
													CHANNELS 3 Yrotation Xrotation Zrotation
													End Site
													{
														OFFSET -0 0 0
													}
												}
											}
										}
									}
								}
							}
						}
					}
					JOINT RightShoulder
					{
						OFFSET -1.59452 1.70466 3.18904
						CHANNELS 3 Yrotation Xrotation Zrotation
						JOINT RightArm
						{
							OFFSET -16.7394 0 0
							CHANNELS 3 Yrotation Xrotation Zrotation
							JOINT RightForeArm
							{
								OFFSET -22.0792 0 0
								CHANNELS 3 Yrotation Xrotation Zrotation
								JOINT RightHand
								{
									OFFSET -21.9518 0 0
									CHANNELS 3 Yrotation Xrotation Zrotation
									JOINT RightHandThumb1
									{
										OFFSET -4.13818 0 2.6379
										CHANNELS 3 Yrotation Xrotation Zrotation
										JOINT RightHandThumb2
										{
											OFFSET -3 0 1
											CHANNELS 3 Yrotation Xrotation Zrotation
											JOINT RightHandThumb3
											{
												OFFSET -2.1 0 0
												CHANNELS 3 Yrotation Xrotation Zrotation
												JOINT RightHandThumb4
												{
													OFFSET -1.305 0 0
													CHANNELS 3 Yrotation Xrotation Zrotation
													End Site
													{
														OFFSET -0 0 0
													}
												}
											}
										}
									}
									JOINT RightHandIndex1
									{
										OFFSET -6.97845 0 3.45401
										CHANNELS 3 Yrotation Xrotation Zrotation
										JOINT RightHandIndex2
										{
											OFFSET -3.5 0 0
											CHANNELS 3 Yrotation Xrotation Zrotation
											JOINT RightHandIndex3
											{
												OFFSET -2.45 0 0
												CHANNELS 3 Yrotation Xrotation Zrotation
												JOINT RightHandIndex4
												{
													OFFSET -1.5225 0 0
													CHANNELS 3 Yrotation Xrotation Zrotation
													End Site
													{
														OFFSET -0 0 0
													}
												}
											}
										}
									}
									JOINT RightHandMiddle1
									{
										OFFSET -7.47728 0 1.18452
										CHANNELS 3 Yrotation Xrotation Zrotation
										JOINT RightHandMiddle2
										{
											OFFSET -4.6 0 0
											CHANNELS 3 Yrotation Xrotation Zrotation
											JOINT RightHandMiddle3
											{
												OFFSET -3.22 0 0
												CHANNELS 3 Yrotation Xrotation Zrotation
												JOINT RightHandMiddle4
												{
													OFFSET -2.001 0 0
													CHANNELS 3 Yrotation Xrotation Zrotation
													End Site
													{
														OFFSET -0 0 0
													}
												}
											}
										}
									}
									JOINT RightHandRing1
									{
										OFFSET -7.67611 0 -1.08498
										CHANNELS 3 Yrotation Xrotation Zrotation
										JOINT RightHandRing2
										{
											OFFSET -3.75 0 0
											CHANNELS 3 Yrotation Xrotation Zrotation
											JOINT RightHandRing3
											{
												OFFSET -2.625 0 0
												CHANNELS 3 Yrotation Xrotation Zrotation
												JOINT RightHandRing4
												{
													OFFSET -1.63125 0 0
													CHANNELS 3 Yrotation Xrotation Zrotation
													End Site
													{
														OFFSET -0 0 0
													}
												}
											}
										}
									}
									JOINT RightHandPinky1
									{
										OFFSET -7.57495 0 -3.35448
										CHANNELS 3 Yrotation Xrotation Zrotation
										JOINT RightHandPinky2
										{
											OFFSET -2.875 0 0
											CHANNELS 3 Yrotation Xrotation Zrotation
											JOINT RightHandPinky3
											{
												OFFSET -2.0125 0 0
												CHANNELS 3 Yrotation Xrotation Zrotation
												JOINT RightHandPinky4
												{
													OFFSET -1.25062 0 0
													CHANNELS 3 Yrotation Xrotation Zrotation
													End Site
													{
														OFFSET -0 0 0
													}
												}
											}
										}
									}
								}
							}
						}
					}
				}
			}
		}
	}
	JOINT LeftUpLeg
	{
		OFFSET 9.56712 -3.18904 3
		CHANNELS 3 Yrotation Xrotation Zrotation
		JOINT LeftLeg
		{
			OFFSET -0 -42.4756 2.23233
			CHANNELS 3 Yrotation Xrotation Zrotation
			JOINT LeftFoot
			{
				OFFSET -0 -34.3506 -2.23233
				CHANNELS 3 Yrotation Xrotation Zrotation
				JOINT LeftToeBase
				{
					OFFSET -0 -9.50731 8.10572
					CHANNELS 3 Yrotation Xrotation Zrotation
					End Site
					{
						OFFSET 0 0 5
					}
				}
			}
		}
	}
	JOINT RightUpLeg
	{
		OFFSET -9.56712 -3.18904 3
		CHANNELS 3 Yrotation Xrotation Zrotation
		JOINT RightLeg
		{
			OFFSET -0 -42.4756 2.23233
			CHANNELS 3 Yrotation Xrotation Zrotation
			JOINT RightFoot
			{
				OFFSET -0 -34.3506 -2.23233
				CHANNELS 3 Yrotation Xrotation Zrotation
				JOINT RightToeBase
				{
					OFFSET -0 -9.50731 8.10572
					CHANNELS 3 Yrotation Xrotation Zrotation
					End Site
					{
						OFFSET 0 0 5
					}
				}
			}
		}
	}
}
MOTION
Frames: 5
Frame Time: 0.0047619
-32.033267 88.737256 23.726201 -19.435315 10.632583 5.723765 6.730575 2.179386 1.043178 5.939151 1.719736 0.829646 2.618335 1.383162 0.483294 1.594509 1.124159 0.164203 31.885889 -1.262221 -5.736508 14.692474 -13.400596 -10.502414 12.304201 -0.178638 4.101775 6.561654 15.731736 -32.787646 -43.239427 2.878888 0.066780 54.130790 -37.434364 -80.254593 4.163327 -16.691134 3.930703 4.713143 -19.217702 4.437779 -61.108049 10.114034 -31.604250 -0.000001 0.000005 12.499999 -0.000001 0.000005 12.499999 0.000006 -0.000001 10.000003 0.000002 0.000000 4.999997 -0.000001 0.000005 12.499999 -0.000001 0.000005 12.499999 0.000006 -0.000001 10.000003 0.000002 0.000000 4.999997 0.000160 0.000200 -4.288401 0.000160 0.000200 -4.288401 0.000135 0.000154 -3.430720 0.000079 0.000072 -1.715358 0.000126 0.000168 -23.392507 0.000126 0.000168 -23.392507 0.000145 0.000086 -18.713994 0.000091 0.000013 -9.356993 -169.576947 -0.011561 -179.873250 -3.809785 -0.129009 -5.329028 7.111299 -10.864983 -4.975533 42.515439 -16.860120 -5.844429 -96.786782 -40.360999 55.020297 8.239050 -7.954413 -13.433026 9.641606 -8.970089 -15.562957 -42.928484 2.297419 20.342562 -0.000003 -0.000000 -12.500008 -0.000003 -0.000000 -12.500008 -0.000003 -0.000001 -10.000003 0.000004 0.000006 -4.999999 -0.000165 0.000518 11.286824 -0.000165 0.000518 11.286824 -0.000201 0.000385 9.029462 -0.000125 0.000180 4.514720 -0.000003 -0.000000 -12.500008 -0.000003 -0.000000 -12.500008 -0.000003 -0.000001 -10.000003 0.000004 0.000006 -4.999999 -0.000003 -0.000000 -12.500008 -0.000003 -0.000000 -12.500008 -0.000003 -0.000001 -10.000003 0.000004 0.000006 -4.999999 4.163327 -16.691134 3.930703 7.232783 -11.943371 -19.075588 0.000000 11.611045 0.000000 -7.010772 4.286828 7.369348 0.000000 -9.653825 0.000000 96.186040 -88.440646 -142.785170 180.000000 72.178213 180.000000 -27.381227 -16.922130 11.365903 0.000000 -18.318976 0.000000
-32.039923 88.745593 23.704221 -19.412382 10.637497 5.722231 6.724564 2.192884 1.013829 5.934847 1.720731 0.812715 2.614257 1.393375 0.471628 1.591028 1.131636 0.150746 31.889990 -1.280482 -5.717112 14.695178 -13.360050 -10.504076 12.286067 -0.167011 4.118045 6.591798 15.584100 -32.855695 -43.163757 2.932748 0.080074 54.125759 -37.325212 -80.303605 4.148010 -16.702945 3.958784 4.694648 -19.231392 4.470634 -61.061054 10.190555 -31.564670 -0.000011 0.000006 12.499997 -0.000011 0.000006 12.499997 0.000019 -0.000002 10.000002 -0.000009 0.000002 4.999996 -0.000011 0.000006 12.499997 -0.000011 0.000006 12.499997 0.000019 -0.000002 10.000002 -0.000009 0.000002 4.999996 -0.000005 -0.000007 -4.721256 -0.000005 -0.000007 -4.721256 -0.000008 -0.000003 -3.777009 -0.000000 -0.000008 -1.888503 0.000034 0.000054 -23.320800 0.000034 0.000054 -23.320800 0.000043 0.000015 -18.656639 0.000024 0.000007 -9.328337 -169.576993 -0.011561 -179.873251 -3.810991 -0.147889 -5.316366 7.130387 -10.871509 -4.956205 42.557965 -16.938462 -5.903291 -96.710839 -40.381923 54.819630 8.409644 -7.916477 -13.437004 9.837002 -8.922925 -15.568749 -42.958243 2.567536 20.377257 -0.000003 -0.000005 -12.500003 -0.000003 -0.000005 -12.500003 0.000000 -0.000002 -9.999994 0.000001 0.000004 -5.000008 -0.000040 0.000115 11.289500 -0.000040 0.000115 11.289500 -0.000048 0.000085 9.031595 -0.000030 0.000044 4.515806 -0.000003 -0.000005 -12.500003 -0.000003 -0.000005 -12.500003 0.000000 -0.000002 -9.999994 0.000001 0.000004 -5.000008 -0.000003 -0.000005 -12.500003 -0.000003 -0.000005 -12.500003 0.000000 -0.000002 -9.999994 0.000001 0.000004 -5.000008 4.148010 -16.702945 3.958784 7.265743 -11.938850 -19.063470 0.000000 11.583790 0.000000 -7.072141 4.310871 7.339094 0.000000 -9.655616 0.000000 96.144992 -88.437554 -142.756595 180.000000 72.208356 180.000000 -27.391753 -16.913591 11.346375 0.000000 -18.285228 0.000000
-32.044614 88.754773 23.682240 -19.371627 10.650030 5.712574 6.720066 2.165329 1.014775 5.911531 1.767344 0.792396 2.610211 1.401355 0.457598 1.586547 1.139741 0.132146 31.915958 -1.298774 -5.731306 14.701936 -13.327728 -10.489802 12.261552 -0.166703 4.116757 6.607400 15.511902 -32.914114 -43.106867 2.895705 0.127280 54.046056 -37.252155 -80.180043 4.148010 -16.702945 3.958784 4.694648 -19.231392 4.470634 -61.061054 10.190555 -31.564670 -0.000011 0.000006 12.499997 -0.000011 0.000006 12.499997 0.000019 -0.000002 10.000002 -0.000009 0.000002 4.999996 -0.000011 0.000006 12.499997 -0.000011 0.000006 12.499997 0.000019 -0.000002 10.000002 -0.000009 0.000002 4.999996 -0.000005 -0.000007 -4.721256 -0.000005 -0.000007 -4.721256 -0.000008 -0.000003 -3.777009 -0.000000 -0.000008 -1.888503 0.000034 0.000054 -23.320800 0.000034 0.000054 -23.320800 0.000043 0.000015 -18.656639 0.000024 0.000007 -9.328337 -169.576993 -0.011561 -179.873251 -3.824214 -0.135505 -5.305898 7.163258 -10.889910 -4.940876 42.526394 -17.016850 -5.966759 -96.690427 -40.336267 54.787379 8.409644 -7.916477 -13.437004 9.837002 -8.922925 -15.568749 -42.958243 2.567536 20.377257 -0.000003 -0.000005 -12.500003 -0.000003 -0.000005 -12.500003 0.000000 -0.000002 -9.999994 0.000001 0.000004 -5.000008 -0.000040 0.000115 11.289500 -0.000040 0.000115 11.289500 -0.000048 0.000085 9.031595 -0.000030 0.000044 4.515806 -0.000003 -0.000005 -12.500003 -0.000003 -0.000005 -12.500003 0.000000 -0.000002 -9.999994 0.000001 0.000004 -5.000008 -0.000003 -0.000005 -12.500003 -0.000003 -0.000005 -12.500003 0.000000 -0.000002 -9.999994 0.000001 0.000004 -5.000008 4.148010 -16.702945 3.958784 7.263323 -11.946964 -19.044308 0.000000 11.545682 0.000000 -7.137091 4.376581 7.380428 0.000000 -9.650168 0.000000 96.934011 -88.458560 -143.591825 180.000000 72.254155 180.000000 -27.380031 -16.914094 11.304431 0.000000 -18.296685 0.000000
-32.052338 88.761792 23.661128 -19.340208 10.668699 5.697993 6.716450 2.176509 1.009466 5.911311 1.743308 0.783451 2.606251 1.407247 0.434577 1.574580 1.168694 0.098965 31.936271 -1.272442 -5.731522 14.711868 -13.374637 -10.487744 12.241052 -0.158810 4.134115 6.606005 15.430733 -32.965248 -43.058513 2.854186 0.179737 53.996341 -37.175817 -80.075402 4.148010 -16.702945 3.958784 4.694648 -19.231392 4.470634 -61.061054 10.190555 -31.564670 -0.000011 0.000006 12.499997 -0.000011 0.000006 12.499997 0.000019 -0.000002 10.000002 -0.000009 0.000002 4.999996 -0.000011 0.000006 12.499997 -0.000011 0.000006 12.499997 0.000019 -0.000002 10.000002 -0.000009 0.000002 4.999996 -0.000005 -0.000007 -4.721256 -0.000005 -0.000007 -4.721256 -0.000008 -0.000003 -3.777009 -0.000000 -0.000008 -1.888503 0.000034 0.000054 -23.320800 0.000034 0.000054 -23.320800 0.000043 0.000015 -18.656639 0.000024 0.000007 -9.328337 -169.576993 -0.011561 -179.873251 -3.827188 -0.139940 -5.295781 7.154070 -10.879283 -4.892489 42.553404 -17.079071 -6.047077 -96.715059 -40.291690 54.773291 8.409644 -7.916477 -13.437004 9.837002 -8.922925 -15.568749 -42.958243 2.567536 20.377257 -0.000003 -0.000005 -12.500003 -0.000003 -0.000005 -12.500003 0.000000 -0.000002 -9.999994 0.000001 0.000004 -5.000008 -0.000040 0.000115 11.289500 -0.000040 0.000115 11.289500 -0.000048 0.000085 9.031595 -0.000030 0.000044 4.515806 -0.000003 -0.000005 -12.500003 -0.000003 -0.000005 -12.500003 0.000000 -0.000002 -9.999994 0.000001 0.000004 -5.000008 -0.000003 -0.000005 -12.500003 -0.000003 -0.000005 -12.500003 0.000000 -0.000002 -9.999994 0.000001 0.000004 -5.000008 4.148010 -16.702945 3.958784 7.248279 -11.953448 -19.020562 0.000000 11.478978 0.000000 -7.178275 4.442767 7.398766 0.000000 -9.674666 0.000000 97.033865 -88.468009 -143.708707 180.000000 72.272592 180.000000 -27.397670 -16.940610 11.376727 0.000000 -18.242466 0.000000
-32.057703 88.771356 23.639154 -19.310018 10.681834 5.677856 6.706880 2.165671 1.024051 5.888923 1.765366 0.776148 2.616958 1.430648 0.408455 1.590445 1.165939 0.073201 31.941641 -1.293957 -5.714130 14.718129 -13.312319 -10.518839 12.199723 -0.139029 4.128671 6.636493 15.324783 -33.006930 -43.010790 2.959497 0.196318 54.010033 -37.191904 -80.093345 4.148010 -16.702945 3.958784 4.694648 -19.231392 4.470634 -61.061054 10.190555 -31.564670 -0.000011 0.000006 12.499997 -0.000011 0.000006 12.499997 0.000019 -0.000002 10.000002 -0.000009 0.000002 4.999996 -0.000011 0.000006 12.499997 -0.000011 0.000006 12.499997 0.000019 -0.000002 10.000002 -0.000009 0.000002 4.999996 -0.000005 -0.000007 -4.721256 -0.000005 -0.000007 -4.721256 -0.000008 -0.000003 -3.777009 -0.000000 -0.000008 -1.888503 0.000034 0.000054 -23.320800 0.000034 0.000054 -23.320800 0.000043 0.000015 -18.656639 0.000024 0.000007 -9.328337 -169.576993 -0.011561 -179.873251 -3.851859 -0.113716 -5.288302 7.161829 -10.902750 -4.891118 42.577732 -17.183643 -6.091639 -96.724912 -40.269456 54.723921 8.409644 -7.916477 -13.437004 9.837002 -8.922925 -15.568749 -42.958243 2.567536 20.377257 -0.000003 -0.000005 -12.500003 -0.000003 -0.000005 -12.500003 0.000000 -0.000002 -9.999994 0.000001 0.000004 -5.000008 -0.000040 0.000115 11.289500 -0.000040 0.000115 11.289500 -0.000048 0.000085 9.031595 -0.000030 0.000044 4.515806 -0.000003 -0.000005 -12.500003 -0.000003 -0.000005 -12.500003 0.000000 -0.000002 -9.999994 0.000001 0.000004 -5.000008 -0.000003 -0.000005 -12.500003 -0.000003 -0.000005 -12.500003 0.000000 -0.000002 -9.999994 0.000001 0.000004 -5.000008 4.148010 -16.702945 3.958784 7.209741 -11.959298 -18.992695 0.000000 11.392000 0.000000 -7.195439 4.526928 7.437045 0.000000 -9.697124 0.000000 97.282859 -88.493973 -143.975328 180.000000 72.312879 180.000000 -27.420181 -16.950680 11.379667 0.000000 -18.298103 0.000000
